<svg width="1200" height="630" viewBox="0 0 1200 630" xmlns="http://www.w3.org/2000/svg">
<rect width="1200" height="630" fill="#1a2744"/>
<circle cx="1100" cy="80" r="200" fill="none" stroke="rgba(200,168,75,0.15)" stroke-width="2"/>
<circle cx="1100" cy="80" r="140" fill="none" stroke="rgba(200,168,75,0.1)" stroke-width="2"/>
<circle cx="100" cy="550" r="180" fill="none" stroke="rgba(255,255,255,0.05)" stroke-width="2"/>
<rect x="0" y="0" width="8" height="630" fill="#c8a84b"/>
<rect x="80" y="80" width="260" height="36" rx="18" fill="rgba(200,168,75,0.2)" stroke="rgba(200,168,75,0.4)" stroke-width="1"/>
<text x="210" y="103" text-anchor="middle" font-family="Arial, sans-serif" font-size="13" font-weight="700" fill="#e2c97e" letter-spacing="2">PROFESSIONAL CV SERVICE</text>
<text x="80" y="190" font-family="Arial, sans-serif" font-size="72" font-weight="900" fill="white" letter-spacing="-1">Arroyo</text>
<text x="80" y="270" font-family="Arial, sans-serif" font-size="72" font-weight="900" fill="#c8a84b" letter-spacing="-1">CV Builder</text>
<text x="80" y="330" font-family="Arial, sans-serif" font-size="24" font-weight="400" fill="rgba(255,255,255,0.7)">Get a professional resume in minutes!</text>
<rect x="80" y="360" width="500" height="2" fill="rgba(200,168,75,0.3)"/>
<circle cx="96" cy="400" r="6" fill="#c8a84b"/>
<text x="115" y="406" font-family="Arial, sans-serif" font-size="20" fill="rgba(255,255,255,0.85)">Fill out a simple form — we design it for you</text>
<circle cx="96" cy="440" r="6" fill="#c8a84b"/>
<text x="115" y="446" font-family="Arial, sans-serif" font-size="20" fill="rgba(255,255,255,0.85)">Choose from 7 professional templates</text>
<circle cx="96" cy="480" r="6" fill="#c8a84b"/>
<text x="115" y="486" font-family="Arial, sans-serif" font-size="20" fill="rgba(255,255,255,0.85)">Fast, affordable and ready to send to employers</text>
<rect x="80" y="530" width="280" height="56" rx="10" fill="#c8a84b"/>
<text x="220" y="565" text-anchor="middle" font-family="Arial, sans-serif" font-size="20" font-weight="800" fill="#1a2744">Fill Out the Form Now!</text>
<rect x="720" y="40" width="420" height="550" rx="8" fill="white" opacity="0.97"/>
<rect x="720" y="40" width="155" height="550" rx="8" fill="#1a2744"/>
<rect x="867" y="40" width="12" height="550" fill="#1a2744"/>
<circle cx="798" cy="130" r="48" fill="rgba(255,255,255,0.15)" stroke="#c8a84b" stroke-width="3"/>
<circle cx="798" cy="115" r="22" fill="rgba(255,255,255,0.25)"/>
<ellipse cx="798" cy="155" rx="32" ry="20" fill="rgba(255,255,255,0.25)"/>
<rect x="740" y="192" width="110" height="8" rx="4" fill="white" opacity="0.9"/>
<rect x="750" y="207" width="90" height="5" rx="2" fill="#c8a84b" opacity="0.8"/>
<rect x="740" y="235" width="60" height="5" rx="2" fill="#c8a84b" opacity="0.7"/>
<rect x="740" y="250" width="100" height="4" rx="2" fill="white" opacity="0.4"/>
<rect x="740" y="262" width="90" height="4" rx="2" fill="white" opacity="0.4"/>
<rect x="740" y="274" width="95" height="4" rx="2" fill="white" opacity="0.4"/>
<rect x="740" y="305" width="50" height="5" rx="2" fill="#c8a84b" opacity="0.7"/>
<rect x="740" y="320" width="100" height="4" rx="2" fill="white" opacity="0.4"/>
<rect x="740" y="332" width="80" height="3" rx="1" fill="#00d4ff" opacity="0.5"/>
<rect x="740" y="344" width="100" height="4" rx="2" fill="white" opacity="0.4"/>
<rect x="740" y="356" width="70" height="3" rx="1" fill="#00d4ff" opacity="0.4"/>
<rect x="885" y="65" width="50" height="5" rx="2" fill="#1a2744" opacity="0.8"/>
<rect x="885" y="78" width="235" height="3" rx="1" fill="#c8a84b" opacity="0.6"/>
<rect x="885" y="90" width="235" height="3" rx="1" fill="#333" opacity="0.2"/>
<rect x="885" y="100" width="200" height="3" rx="1" fill="#333" opacity="0.2"/>
<rect x="885" y="145" width="70" height="5" rx="2" fill="#1a2744" opacity="0.8"/>
<rect x="885" y="158" width="235" height="3" rx="1" fill="#c8a84b" opacity="0.6"/>
<rect x="885" y="170" width="180" height="4" rx="2" fill="#1a2744" opacity="0.7"/>
<rect x="885" y="218" width="95" height="5" rx="2" fill="#1a2744" opacity="0.8"/>
<rect x="885" y="231" width="235" height="3" rx="1" fill="#c8a84b" opacity="0.6"/>
<rect x="885" y="245" width="120" height="4" rx="2" fill="#1a2744" opacity="0.8"/>
<rect x="885" y="267" width="100" height="3" rx="1" fill="#00d4ff" opacity="0.5"/>
<rect x="885" y="298" width="100" height="4" rx="2" fill="#1a2744" opacity="0.8"/>
<rect x="885" y="320" width="90" height="3" rx="1" fill="#00d4ff" opacity="0.5"/>
<text x="80" y="618" font-family="Arial, sans-serif" font-size="16" fill="rgba(255,255,255,0.4)">interptools.github.io/arroyo-cv-builder</text>
<text x="1120" y="618" text-anchor="end" font-family="Arial, sans-serif" font-size="16" fill="rgba(255,255,255,0.4)">09063964052 · areymar36@gmail.com</text>
</svg>
